<svg width="16" height="16" viewBox="0 0 16 16" fill="none" xmlns="http://www.w3.org/2000/svg">
<path d="M2 4H14V12H2V4ZM8 6C8.53043 6 9.03914 6.21071 9.41421 6.58579C9.78929 6.96086 10 7.46957 10 8C10 8.53043 9.78929 9.03914 9.41421 9.41421C9.03914 9.78929 8.53043 10 8 10C7.46957 10 6.96086 9.78929 6.58579 9.41421C6.21071 9.03914 6 8.53043 6 8C6 7.46957 6.21071 6.96086 6.58579 6.58579C6.96086 6.21071 7.46957 6 8 6V6ZM4.66667 5.33333C4.66667 5.68696 4.52619 6.02609 4.27614 6.27614C4.02609 6.52619 3.68696 6.66667 3.33333 6.66667V9.33333C3.68696 9.33333 4.02609 9.47381 4.27614 9.72386C4.52619 9.97391 4.66667 10.313 4.66667 10.6667H11.3333C11.3333 10.313 11.4738 9.97391 11.7239 9.72386C11.9739 9.47381 12.313 9.33333 12.6667 9.33333V6.66667C12.313 6.66667 11.9739 6.52619 11.7239 6.27614C11.4738 6.02609 11.3333 5.68696 11.3333 5.33333H4.66667Z" fill="#47C27A"/>
</svg>
