<svg width="14" height="14" viewBox="0 0 14 14" fill="none" xmlns="http://www.w3.org/2000/svg">
<path d="M7.00008 2C4.74258 2 2.91675 3.82583 2.91675 6.08333C2.91675 9.14583 7.00008 13.6667 7.00008 13.6667C7.00008 13.6667 11.0834 9.14583 11.0834 6.08333C11.0834 3.82583 9.25758 2 7.00008 2ZM7.00008 7.54167C6.61331 7.54167 6.24238 7.38802 5.96888 7.11453C5.69539 6.84104 5.54175 6.47011 5.54175 6.08333C5.54175 5.69656 5.69539 5.32563 5.96888 5.05214C6.24238 4.77865 6.61331 4.625 7.00008 4.625C7.38686 4.625 7.75779 4.77865 8.03128 5.05214C8.30477 5.32563 8.45842 5.69656 8.45842 6.08333C8.45842 6.47011 8.30477 6.84104 8.03128 7.11453C7.75779 7.38802 7.38686 7.54167 7.00008 7.54167V7.54167Z" fill="#0F1115"/>
</svg>
