<svg width="14" height="14" viewBox="0 0 14 14" fill="none" xmlns="http://www.w3.org/2000/svg">
<path d="M9.88467 8.4834C9.11631 7.81484 8.1128 7.41016 7.01358 7.41016C5.91436 7.41016 4.91084 7.81484 4.14112 8.48477C4.11986 8.50393 4.10685 8.53058 4.10481 8.55913C4.10277 8.58767 4.11186 8.6159 4.13018 8.63789L4.62237 9.22441C4.66201 9.2709 4.73174 9.27637 4.77822 9.23672C5.37432 8.71172 6.15635 8.39453 7.01358 8.39453C7.8708 8.39453 8.65283 8.71172 9.24893 9.23535C9.29541 9.275 9.36514 9.26953 9.40479 9.22305L9.89698 8.63652C9.93526 8.59141 9.92979 8.52305 9.88467 8.4834ZM11.4897 6.56797C10.2771 5.55762 8.71709 4.94922 7.01358 4.94922C5.31006 4.94922 3.7501 5.55762 2.53604 6.56797C2.51383 6.5867 2.49993 6.61346 2.49736 6.6424C2.4948 6.67134 2.50379 6.70012 2.52237 6.72246L3.01455 7.30898C3.05283 7.35547 3.12256 7.36094 3.16768 7.32266C4.21084 6.45586 5.55205 5.93359 7.01358 5.93359C8.4751 5.93359 9.81631 6.45586 10.8581 7.32266C10.9046 7.36094 10.973 7.35547 11.0112 7.30898L11.5034 6.72246C11.5417 6.67598 11.5362 6.60625 11.4897 6.56797V6.56797ZM13.0853 4.66758C11.4255 3.30586 9.30088 2.48828 6.98623 2.48828C4.68662 2.48828 2.57569 3.29492 0.920022 4.64023C0.908647 4.64937 0.899216 4.6607 0.892283 4.67353C0.885351 4.68637 0.881057 4.70047 0.879656 4.71499C0.878255 4.72952 0.879773 4.74418 0.884123 4.7581C0.888473 4.77203 0.895565 4.78495 0.904983 4.79609L1.39717 5.38262C1.43545 5.42773 1.50381 5.43457 1.54893 5.39766C3.03506 4.19316 4.92588 3.47266 6.98623 3.47266C9.06162 3.47266 10.9647 4.2041 12.455 5.42363C12.5015 5.46191 12.5698 5.45508 12.6081 5.40859L13.1003 4.82207C13.1399 4.77559 13.1331 4.70586 13.0853 4.66758ZM6.1249 10.6367C6.1249 10.8688 6.21709 11.0913 6.38119 11.2554C6.54528 11.4195 6.76784 11.5117 6.9999 11.5117C7.23197 11.5117 7.45453 11.4195 7.61862 11.2554C7.78272 11.0913 7.8749 10.8688 7.8749 10.6367C7.8749 10.4047 7.78272 10.1821 7.61862 10.018C7.45453 9.85391 7.23197 9.76172 6.9999 9.76172C6.76784 9.76172 6.54528 9.85391 6.38119 10.018C6.21709 10.1821 6.1249 10.4047 6.1249 10.6367Z" fill="#0F1115"/>
</svg>
